<svg width="24" height="25" viewBox="0 0 24 25" fill="none" xmlns="http://www.w3.org/2000/svg">
<path d="M16.5 6.23633H13.5C12.9477 6.23633 12.5 6.68405 12.5 7.23633V10.2363H16.5C16.6137 10.2338 16.7216 10.2867 16.7892 10.3782C16.8568 10.4697 16.8758 10.5883 16.84 10.6963L16.1 12.8963C16.0318 13.0982 15.8431 13.2347 15.63 13.2363H12.5V20.7363C12.5 21.0124 12.2761 21.2363 12 21.2363H9.5C9.22386 21.2363 9 21.0124 9 20.7363V13.2363H7.5C7.22386 13.2363 7 13.0124 7 12.7363V10.7363C7 10.4602 7.22386 10.2363 7.5 10.2363H9V7.23633C9 5.02719 10.7909 3.23633 13 3.23633H16.5C16.7761 3.23633 17 3.46019 17 3.73633V5.73633C17 6.01247 16.7761 6.23633 16.5 6.23633Z" fill="black"/>
</svg>
