<svg width="24" height="25" viewBox="0 0 24 25" fill="none" xmlns="http://www.w3.org/2000/svg">
<path d="M20.9728 6.95373C20.5084 7.57325 19.947 8.11366 19.3103 8.55409C19.3103 8.71592 19.3103 8.87775 19.3103 9.04858C19.3154 11.9874 18.1415 14.8054 16.0518 16.8708C13.962 18.9362 11.1312 20.0762 8.19405 20.0352C6.49599 20.0409 4.81967 19.6532 3.29642 18.9024C3.21428 18.8665 3.16131 18.7853 3.16162 18.6956V18.5967C3.16162 18.4676 3.26623 18.363 3.39527 18.363C5.06442 18.3079 6.67402 17.7292 7.99634 16.7087C6.48553 16.6782 5.12619 15.7832 4.5006 14.407C4.46901 14.3319 4.47884 14.2456 4.52657 14.1795C4.57429 14.1134 4.653 14.077 4.73425 14.0834C5.19342 14.1295 5.65718 14.0868 6.1002 13.9575C4.43239 13.6113 3.17921 12.2267 2.99986 10.532C2.99349 10.4507 3.02992 10.372 3.096 10.3242C3.16207 10.2765 3.24824 10.2666 3.32338 10.2983C3.77094 10.4958 4.25409 10.5998 4.74324 10.6039C3.28184 9.64479 2.65061 7.82038 3.20655 6.16255C3.26394 6.00146 3.40181 5.88245 3.5695 5.84927C3.73718 5.81608 3.90996 5.87361 4.02432 6.00072C5.99639 8.09958 8.70604 9.35029 11.5819 9.48912C11.5083 9.19518 11.4721 8.89309 11.4741 8.59005C11.501 7.00105 12.4842 5.58554 13.9634 5.0062C15.4425 4.42687 17.1249 4.79836 18.223 5.94677C18.9714 5.80418 19.695 5.55278 20.3707 5.20054C20.4202 5.16964 20.483 5.16964 20.5325 5.20054C20.5634 5.25006 20.5634 5.31285 20.5325 5.36237C20.2052 6.11185 19.6523 6.74045 18.9509 7.16052C19.5651 7.08929 20.1685 6.9444 20.7482 6.72897C20.797 6.69575 20.8611 6.69575 20.9099 6.72897C20.9508 6.74767 20.9814 6.78344 20.9935 6.82675C21.0056 6.87006 20.998 6.91651 20.9728 6.95373Z" fill="black"/>
</svg>
