<svg width="18" height="19" viewBox="0 0 18 19" fill="none" xmlns="http://www.w3.org/2000/svg">
<path fill-rule="evenodd" clip-rule="evenodd" d="M2 0.236328H16C17.1046 0.236328 18 1.13176 18 2.23633V16.2363C18 17.3409 17.1046 18.2363 16 18.2363H2C0.89543 18.2363 0 17.3409 0 16.2363V2.23633C0 1.13176 0.89543 0.236328 2 0.236328ZM5 15.2363C5.27614 15.2363 5.5 15.0124 5.5 14.7363V7.73633C5.5 7.46023 5.27614 7.23633 5 7.23633H3.5C3.22386 7.23633 3 7.46023 3 7.73633V14.7363C3 15.0124 3.22386 15.2363 3.5 15.2363H5ZM4.25 6.23633C3.42157 6.23633 2.75 5.56476 2.75 4.73633C2.75 3.9079 3.42157 3.23633 4.25 3.23633C5.07843 3.23633 5.75 3.9079 5.75 4.73633C5.75 5.56476 5.07843 6.23633 4.25 6.23633ZM14.5 15.2363C14.7761 15.2363 15 15.0124 15 14.7363V10.1363C15.0325 8.54713 13.8576 7.19085 12.28 6.99633C11.177 6.89558 10.1083 7.41073 9.5 8.33633V7.73633C9.5 7.46023 9.2761 7.23633 9 7.23633H7.5C7.2239 7.23633 7 7.46023 7 7.73633V14.7363C7 15.0124 7.2239 15.2363 7.5 15.2363H9C9.2761 15.2363 9.5 15.0124 9.5 14.7363V10.9863C9.5 10.1579 10.1716 9.48633 11 9.48633C11.8284 9.48633 12.5 10.1579 12.5 10.9863V14.7363C12.5 15.0124 12.7239 15.2363 13 15.2363H14.5Z" fill="black"/>
</svg>
