<svg width="24" height="25" viewBox="0 0 24 25" fill="none" xmlns="http://www.w3.org/2000/svg">
<path fill-rule="evenodd" clip-rule="evenodd" d="M16 3.23633H8C5.23858 3.23633 3 5.47491 3 8.23633V16.2363C3 18.9977 5.23858 21.2363 8 21.2363H16C18.7614 21.2363 21 18.9977 21 16.2363V8.23633C21 5.47491 18.7614 3.23633 16 3.23633ZM19.25 16.2363C19.2445 18.0289 17.7926 19.4808 16 19.4863H8C6.20735 19.4808 4.75549 18.0289 4.75 16.2363V8.23633C4.75549 6.44368 6.20735 4.99182 8 4.98633H16C17.7926 4.99182 19.2445 6.44368 19.25 8.23633V16.2363ZM16.75 8.48633C17.3023 8.48633 17.75 8.03861 17.75 7.48633C17.75 6.93405 17.3023 6.48633 16.75 6.48633C16.1977 6.48633 15.75 6.93405 15.75 7.48633C15.75 8.03861 16.1977 8.48633 16.75 8.48633ZM12 7.73633C9.51472 7.73633 7.5 9.75105 7.5 12.2363C7.5 14.7216 9.51472 16.7363 12 16.7363C14.4853 16.7363 16.5 14.7216 16.5 12.2363C16.5027 11.042 16.0294 9.8959 15.1849 9.05141C14.3404 8.20692 13.1943 7.73367 12 7.73633ZM9.25 12.2363C9.25 13.7551 10.4812 14.9863 12 14.9863C13.5188 14.9863 14.75 13.7551 14.75 12.2363C14.75 10.7175 13.5188 9.48633 12 9.48633C10.4812 9.48633 9.25 10.7175 9.25 12.2363Z" fill="black"/>
</svg>
