<svg width="120" height="40" viewBox="0 0 120 40" fill="none" xmlns="http://www.w3.org/2000/svg">
<path d="M44.5776 14.5814V30.1056H55.563L60.9879 24.8709V9.34668H50.0025L44.5776 14.5814ZM50.7908 24.1102V15.3339H54.7832V24.1102H50.7908Z" fill="#2D2F2F"/>
<path d="M63.8359 14.475V30.1137H70.0745V25.1652H74.906L80.3563 19.8733V9.20752H69.2862L63.8274 14.475H63.8359ZM70.0745 19.1126V15.2356H74.1262V19.1126H70.0745Z" fill="#2D2F2F"/>
<path d="M93.4691 24.0855H89.4513V8.47949L83.2126 14.4994V30.1054H94.2574L99.7077 24.8462V9.23198H93.4691V24.0855Z" fill="#2D2F2F"/>
<path d="M108.532 15.3174H113.338L119.542 9.28931H107.743L102.318 14.5567V22.6951H112.549V24.1183H107.743L101.539 30.1055H113.338L118.763 24.8708V16.7079H108.532V15.3174Z" fill="#2D2F2F"/>
<path d="M9.53589 35.5446L16.2746 39.2989V12.0947L9.53589 15.8572V35.5446Z" fill="#FF5F35"/>
<path d="M33.9482 9.77172L17.6651 0.700928L1.36499 9.78808L8.13761 13.526L17.6651 8.21766L27.201 13.526L33.9482 9.77172Z" fill="#FF5F35"/>
<path d="M0 30.2279L6.73872 33.9903V15.8242L0 12.1108V30.2279Z" fill="#FF5F35"/>
<path d="M35.3381 30.2363V19.5869V12.0784L28.6587 15.7754V26.3266L19.0635 31.6104V39.2989L35.3381 30.2363Z" fill="#FF5F35"/>
</svg>
